<svg id="krol_b" data-name="krol b" xmlns="http://www.w3.org/2000/svg" viewBox="0 0 288 446.249"><defs><style>.cls-1{fill:none;stroke:#1d1d1b;stroke-miterlimit:10;stroke-width:12px;}</style></defs><path class="cls-1" d="M413.333,485.215h-288a143.947,143.947,0,0,0,144-144,143.845,143.845,0,0,0,144,144Z" transform="translate(-125.333 -44.966)"/><path class="cls-1" d="M377.363,201.745a143.126,143.126,0,0,0-36.03,14.74,143.947,143.947,0,0,0-72,124.73A144.063,144.063,0,0,0,161.3,201.745q1.26-2.28,2.56-4.53a288.607,288.607,0,0,1,33.47-46.5q4.4-5,9.03-9.78a215.752,215.752,0,0,1,62.97,39.3,215.752,215.752,0,0,1,62.97-39.3q4.62,4.785,9.03,9.78a288.607,288.607,0,0,1,33.47,46.5Q376.108,199.465,377.363,201.745Z" transform="translate(-125.333 -44.966)"/><path class="cls-1" d="M307.627,91.755a53.671,53.671,0,0,1-24.286,14,53.546,53.546,0,0,1-14.018,24.287,53.692,53.692,0,0,1-14-24.287,53.665,53.665,0,0,1-24.286-14,53.535,53.535,0,0,1,24.286-14.017,53.684,53.684,0,0,1,14-24.286,53.718,53.718,0,0,1,14.018,24.286A53.721,53.721,0,0,1,307.627,91.755Z" transform="translate(-125.333 -44.966)"/></svg>