<svg id="wieza_b" data-name="wieza b" xmlns="http://www.w3.org/2000/svg" viewBox="0 0 288 356.365"><defs><style>.cls-1{fill:none;stroke:#1d1d1b;stroke-miterlimit:10;stroke-width:12px;}</style></defs><path class="cls-1" d="M413.391,485.215h-288a143.947,143.947,0,0,0,144-144,143.845,143.845,0,0,0,144,144Z" transform="translate(-125.391 -134.85)"/><path class="cls-1" d="M404.451,269.765a72.021,72.021,0,0,0-63.06,71.45v-72h-52.73a143.359,143.359,0,0,0-19.27,72,143.359,143.359,0,0,0-19.27-72h-52.73v72a72.021,72.021,0,0,0-63.06-71.45c.04-.18.09-.36.14-.55a285.548,285.548,0,0,1,26.89-67.47q1.26-2.28,2.56-4.53a288.607,288.607,0,0,1,33.47-46.5v65.77a144.757,144.757,0,0,1,26.97,20.14,216.364,216.364,0,0,1,28.05-39.41,209.273,209.273,0,0,1,16.98-16.98,209.273,209.273,0,0,1,16.98,16.98,216.364,216.364,0,0,1,28.05,39.41,144.757,144.757,0,0,1,26.97-20.14v-65.77a288.607,288.607,0,0,1,33.47,46.5q1.305,2.25,2.56,4.53a285.548,285.548,0,0,1,26.89,67.47C404.361,269.4,404.411,269.585,404.451,269.765Z" transform="translate(-125.391 -134.85)"/></svg>