<svg id="kon_b" data-name="kon b" xmlns="http://www.w3.org/2000/svg" viewBox="0 0 280.126 442.284"><defs><style>.cls-1{fill:none;stroke:#1d1d1b;stroke-miterlimit:10;stroke-width:12px;}</style></defs><path class="cls-1" d="M413.391,485.215H143.321c-.19-.35-.37-.7-.56-1.05a140.655,140.655,0,0,0,18.6-3.48,143.126,143.126,0,0,0,36.03-14.74,144.757,144.757,0,0,0,26.97-20.14q3.21-3.03,6.22-6.26a143.6,143.6,0,0,0,38.81-98.33,143.708,143.708,0,0,0,45.03,104.59c.67.63,1.34,1.26,2.02,1.87q.57.525,1.14,1.02c1.22,1.11,2.47,2.18,3.73,3.22.5.43,1.01.85,1.52,1.26q2,1.62,4.05,3.15c.49.39.99.75,1.49,1.11a.47.47,0,0,0,.12.09,1.95,1.95,0,0,0,.25.18c.53.39,1.05.77,1.58,1.14.29.21.58.41.87.61.5.35,1,.69,1.5,1.03,1.07.73,2.16,1.44,3.25,2.14,1.79,1.15,3.6,2.25,5.45,3.32q1.14.66,2.28,1.29c1.32.74,2.66,1.45,4,2.14.66.34,1.32.67,1.99.99.67.34,1.35.67,2.03.98.68.34,1.36.66,2.05.96q3.09,1.425,6.24,2.68,4.23,1.68,8.58,3.11c1.07.35,2.14.69,3.22,1.01q2.79.84,5.64,1.58A144.058,144.058,0,0,0,413.391,485.215Z" transform="translate(-133.265 -48.931)"/><path class="cls-1" d="M377.421,201.745q-1.17.3-2.34.63c-.48.13-.95.26-1.42.4-1.71.49-3.42,1.01-5.1,1.56q-4.35,1.425-8.58,3.11c-1.08.43-2.16.88-3.22,1.34-.49.21-.97.42-1.45.63-.53.23-1.05.47-1.57.71-.69.31-1.37.63-2.05.96s-1.36.65-2.03.98-1.33.65-1.99.99c-1.34.69-2.68,1.4-4,2.14q-1.14.63-2.28,1.29v-19.27h-20.24a244.461,244.461,0,0,0-30.25-33.93c-.63.43-1.26.87-1.88,1.32-.53.37-1.05.74-1.57,1.11-.1.07-.2.14-.3.22-.63.45-1.25.9-1.86,1.36s-1.23.91-1.84,1.38-1.21.91-1.81,1.38c-.91.69-1.8,1.39-2.69,2.11s-1.78,1.42-2.66,2.15c-.71.58-1.41,1.17-2.11,1.75-.75.63-1.49,1.27-2.22,1.91-.86.74-1.72,1.5-2.57,2.26a209.273,209.273,0,0,1,16.98,16.98,216.364,216.364,0,0,1,28.05,39.41,143.708,143.708,0,0,0-45.03,104.59,143.708,143.708,0,0,0-45.03-104.59c-1.51-1.43-3.04-2.82-4.61-4.18-.63-.55-1.27-1.09-1.91-1.62-.45-.39-.91-.77-1.37-1.14q-3.63-2.97-7.46-5.7v-.01q-1.32-.945-2.67-1.86c-.12-.08-.23-.16-.35-.24-.76-.51-1.53-1.03-2.31-1.53-1.15-.75-2.3-1.48-3.47-2.19-.93-.57-1.87-1.12-2.82-1.67a143.126,143.126,0,0,0-36.03-14.74q1.26-2.28,2.56-4.53a288.607,288.607,0,0,1,33.47-46.5q4.4-5,9.03-9.78c.91-.93,1.82-1.86,2.74-2.78.39-.4.79-.8,1.19-1.19.98-.98,1.98-1.95,2.98-2.92,1.18-1.13,2.36-2.26,3.56-3.37s2.4-2.22,3.61-3.32c.79-.72,1.59-1.43,2.39-2.14q2.505-2.22,5.06-4.36,1.725-1.455,3.48-2.88c.38-.32.77-.63,1.15-.93.97-.8,1.95-1.58,2.94-2.35a1.738,1.738,0,0,0,.15-.13h.01c.03-.02.06-.05.09-.07.96-.75,1.92-1.5,2.89-2.23a1.245,1.245,0,0,1,.19-.15c.41-.32.83-.63,1.24-.95q1.785-1.335,3.6-2.66c1.23-.9,2.46-1.79,3.71-2.67.48-.34.97-.68,1.46-1.02,1.03-.72,2.07-1.44,3.11-2.14q4.23-2.88,8.57-5.59,4.38-2.745,8.85-5.34a286.064,286.064,0,0,1,52.58-23.71,289.649,289.649,0,0,0-38.86,32.17,287.96,287.96,0,0,1,32.78,25.01q8.535,7.53,16.47,15.72,4.62,4.785,9.03,9.78a288.607,288.607,0,0,1,33.47,46.5Q376.166,199.465,377.421,201.745Z" transform="translate(-133.265 -48.931)"/></svg>