<svg id="goniec_b" data-name="goniec b" xmlns="http://www.w3.org/2000/svg" viewBox="0 0 288 406.402"><defs><style>.cls-1{fill:none;stroke:#1d1d1b;stroke-miterlimit:10;stroke-width:12px;}</style></defs><path class="cls-1" d="M413.391,485.215h-288a143.947,143.947,0,0,0,144-144,144.177,144.177,0,0,0,66.55,121.41c1.79,1.15,3.6,2.25,5.45,3.32a143.32,143.32,0,0,0,72,19.27Z" transform="translate(-125.391 -84.813)"/><path class="cls-1" d="M377.421,201.745a142.807,142.807,0,0,0-36.03,14.74c-1.85,1.07-3.66,2.17-5.45,3.32a143.9,143.9,0,0,0-66.55,121.41,144.063,144.063,0,0,0-108.03-139.47q1.26-2.28,2.56-4.53a288.607,288.607,0,0,1,33.47-46.5q4.4-5,9.03-9.78,7.935-8.175,16.47-15.72,2.505-2.22,5.06-4.36,4.485,2.085,8.88,4.36a243.94,243.94,0,0,1,54.07,38.07,217.467,217.467,0,0,1,24.02-14.37,270.066,270.066,0,0,0-27.51-23.7q-8.745-6.57-18.02-12.43-8.505-5.385-17.42-10.11,8.5-5.775,17.42-10.93a288.607,288.607,0,0,1,46.5,33.47q8.535,7.53,16.47,15.72,4.62,4.785,9.03,9.78a288.607,288.607,0,0,1,33.47,46.5Q376.166,199.465,377.421,201.745Z" transform="translate(-125.391 -84.813)"/></svg>