<svg id="pion_b" data-name="pion b" xmlns="http://www.w3.org/2000/svg" viewBox="0 0 285.164 313.61"><defs><style>.cls-1{fill:none;stroke:#1d1d1b;stroke-miterlimit:10;stroke-width:12px;}</style></defs><path class="cls-1" d="M413.333,485.215l-285.162-.028c12.42,0,21.642-1.542,33.132-4.5a143.126,143.126,0,0,0,36.03-14.74,143.947,143.947,0,0,0,72-124.73,143.845,143.845,0,0,0,144,144Z" transform="translate(-128.17 -177.605)"/><path class="cls-1" d="M314.271,239.76a.247.247,0,0,1-.046.3,143.7,143.7,0,0,0-44.892,104.459,143.706,143.706,0,0,0-44.7-104.278.585.585,0,0,1-.108-.708,216.33,216.33,0,0,1,27.829-39.014A209.235,209.235,0,0,1,269.2,183.656a.2.2,0,0,1,.267,0,209.059,209.059,0,0,1,16.846,16.861A216.39,216.39,0,0,1,314.271,239.76Z" transform="translate(-128.17 -177.605)"/></svg>