<svg id="krol" xmlns="http://www.w3.org/2000/svg" viewBox="0 0 288 432.971"><defs><style>.cls-1{fill:#1d1d1b;stroke:#1d1d1b;stroke-miterlimit:10;}</style></defs><path class="cls-1" d="M413.276,485.215h-288a143.947,143.947,0,0,0,144-144,143.845,143.845,0,0,0,144,144Z" transform="translate(-125.276 -52.744)"/><path class="cls-1" d="M377.306,201.745a143.126,143.126,0,0,0-36.03,14.74,143.947,143.947,0,0,0-72,124.73,144.063,144.063,0,0,0-108.03-139.47q1.26-2.28,2.56-4.53a288.607,288.607,0,0,1,33.47-46.5q4.395-5,9.03-9.78a215.752,215.752,0,0,1,62.97,39.3,215.752,215.752,0,0,1,62.97-39.3q4.62,4.785,9.03,9.78a288.607,288.607,0,0,1,33.47,46.5Q376.051,199.465,377.306,201.745Z" transform="translate(-125.276 -52.744)"/><path class="cls-1" d="M307.57,91.755a53.674,53.674,0,0,1-24.287,14,53.544,53.544,0,0,1-14.017,24.287,53.685,53.685,0,0,1-14-24.287,53.676,53.676,0,0,1-24.286-14,53.546,53.546,0,0,1,24.286-14.017,53.677,53.677,0,0,1,14-24.286,53.716,53.716,0,0,1,14.017,24.286A53.725,53.725,0,0,1,307.57,91.755Z" transform="translate(-125.276 -52.744)"/></svg>