<svg id="pion" xmlns="http://www.w3.org/2000/svg" viewBox="0 0 288 306.15"><defs><style>.cls-1{fill:#1d1d1b;stroke:#1d1d1b;stroke-miterlimit:10;}</style></defs><path class="cls-1" d="M413.391,485.215h-288a143.947,143.947,0,0,0,144-144,143.845,143.845,0,0,0,144,144Z" transform="translate(-125.391 -179.565)"/><path class="cls-1" d="M314.421,236.625a143.708,143.708,0,0,0-45.03,104.59,143.708,143.708,0,0,0-45.03-104.59,216.364,216.364,0,0,1,28.05-39.41,209.273,209.273,0,0,1,16.98-16.98,209.273,209.273,0,0,1,16.98,16.98A216.364,216.364,0,0,1,314.421,236.625Z" transform="translate(-125.391 -179.565)"/></svg>