<svg id="dama" xmlns="http://www.w3.org/2000/svg" viewBox="0 0 288 371.737"><defs><style>.cls-1{fill:#1d1d1b;stroke:#1d1d1b;stroke-miterlimit:10;}</style></defs><path class="cls-1" d="M404.311,269.215h-18.63a268.177,268.177,0,0,0-25.7-61.76c-.11.05-.23.09-.34.14-.58.23-1.16.47-1.74.71a.076.076,0,0,0-.04.02c-.69.28-1.38.58-2.06.88s-1.38.6-2.07.92-1.37.63-2.05.95c-.58.28-1.17.56-1.75.85-.42.2-.83.41-1.24.62-.35.17-.7.35-1.05.53-.28.14-.55.28-.83.43-1.06.55-2.1,1.11-3.14,1.69q-1.14.63-2.28,1.29-3.825,2.22-7.5,4.65c-.48.32-.97.65-1.45.98q-1.995,1.365-3.95,2.79c-.62.45-1.23.91-1.84,1.37q-1.065.795-2.1,1.62c-.51.39-1.01.79-1.51,1.2-1.39,1.12-2.76,2.26-4.1,3.44-1.01.86-2,1.75-2.98,2.66-.52.47-1.03.95-1.54,1.43a143.708,143.708,0,0,0-45.03,104.59,144.322,144.322,0,0,0-72-124.73q-1.14-.66-2.28-1.29a141.563,141.563,0,0,0-16.31-7.74,268.177,268.177,0,0,0-25.7,61.76h-18.63a285.548,285.548,0,0,1,26.89-67.47q1.26-2.28,2.56-4.53a288.607,288.607,0,0,1,33.47-46.5q4.4-5,9.03-9.78,6.81-7.02,14.08-13.58c.79-.72,1.59-1.43,2.39-2.14q6.24-5.5,12.78-10.65,8.925,4.335,17.43,9.36c-.58.42-1.15.85-1.73,1.29q-6.9,5.175-13.45,10.79-7.26,6.21-14.07,12.92c5.58,2.85,11.02,5.96,16.31,9.28q7.815,4.9,15.17,10.47,7.275,5.475,14.06,11.56,6.78-6.075,14.06-11.56,7.35-5.565,15.17-10.47c5.29-3.32,10.73-6.43,16.31-9.28q-6.795-6.7-14.07-12.92-6.54-5.61-13.45-10.79c-.58-.44-1.15-.87-1.73-1.29q8.505-5.01,17.43-9.36,6.54,5.145,12.78,10.65c.8.71,1.6,1.42,2.39,2.14q7.26,6.54,14.08,13.58,4.62,4.785,9.03,9.78a288.607,288.607,0,0,1,33.47,46.5q1.305,2.25,2.56,4.53A285.548,285.548,0,0,1,404.311,269.215Z" transform="translate(-125.391 -113.979)"/><path class="cls-1" d="M413.391,485.215h-288a144.058,144.058,0,0,0,35.97-4.53c.8-.21,1.59-.42,2.39-.64.41-.11.81-.22,1.21-.34s.77-.22,1.16-.34q.945-.27,1.89-.57c.34-.1.68-.21,1.02-.32,1.2-.38,2.39-.78,3.57-1.19.22-.07.43-.14.64-.22s.39-.14.58-.21c.31-.11.62-.22.92-.33.65-.23,1.29-.47,1.93-.72s1.25-.48,1.87-.73c.09-.03.17-.07.26-.1.29-.11.57-.23.86-.35.35-.14.69-.28,1.03-.42.12-.05.25-.1.37-.16.64-.26,1.28-.54,1.92-.82.25-.1.49-.21.73-.32.15-.06.29-.12.43-.19.31-.13.61-.27.91-.41.69-.31,1.37-.63,2.05-.95.58-.28,1.17-.56,1.75-.85.42-.2.83-.41,1.24-.62.35-.17.7-.35,1.05-.53.28-.14.55-.28.83-.43.1-.05.2-.1.3-.16l.87-.45a1.281,1.281,0,0,1,.2-.11c.59-.32,1.18-.64,1.77-.97q1.14-.63,2.28-1.29c.56-.32,1.11-.65,1.67-.98.07-.04.15-.09.23-.14.47-.28.94-.57,1.42-.86.01-.01.02-.01.04-.02s.04-.03.07-.05c.07-.04.14-.08.2-.12s.11-.07.16-.1c1.15-.71,2.29-1.44,3.41-2.18.07-.05.14-.1.21-.14s.15-.1.22-.15c.44-.29.88-.59,1.32-.89s.88-.6,1.32-.91c.47-.33.95-.66,1.41-1,.41-.29.82-.58,1.22-.88.62-.45,1.23-.9,1.84-1.37q1.065-.795,2.1-1.62c.51-.39,1.01-.79,1.51-1.2.37-.29.74-.59,1.1-.9l.13-.1c.26-.21.52-.42.78-.65.02-.02.04-.03.06-.05a.187.187,0,0,0,.07-.06c.36-.29.71-.59,1.06-.9a6.4,6.4,0,0,0,.49-.42,4.592,4.592,0,0,0,.41-.36c.2-.16.4-.34.6-.52.3-.26.6-.52.9-.79.5-.45.99-.89,1.48-1.35.52-.47,1.03-.95,1.54-1.43a143.708,143.708,0,0,0,45.03-104.59,143.708,143.708,0,0,0,45.03,104.59c.51.48,1.02.96,1.54,1.43s1.04.95,1.56,1.41c.27.25.55.49.82.73.2.17.4.35.6.52.67.59,1.35,1.17,2.03,1.74s1.38,1.14,2.07,1.7c.5.41,1,.81,1.51,1.2q1.035.825,2.1,1.62c.31.24.61.47.92.69s.61.45.92.68c.65.47,1.3.95,1.96,1.41s1.32.92,1.99,1.38c.48.33.97.66,1.45.98,1.07.71,2.14,1.4,3.23,2.08.79.49,1.58.98,2.37,1.45.63.38,1.26.75,1.9,1.12q1.14.66,2.28,1.29c.65.36,1.3.71,1.95,1.06.39.21.79.42,1.19.63.28.15.55.29.83.43.35.18.7.36,1.05.53.41.21.82.42,1.24.62.58.29,1.17.57,1.75.85.68.32,1.36.64,2.05.95s1.38.62,2.07.92,1.37.6,2.06.88a.076.076,0,0,0,.04.02c.58.24,1.16.48,1.74.71.11.05.23.09.34.14.09.03.17.07.26.1.62.25,1.24.49,1.87.73s1.28.49,1.93.72c.2.08.41.15.62.22.54.2,1.09.4,1.64.58.81.29,1.62.56,2.44.82.33.11.67.23,1.01.33s.68.22,1.02.32q.945.3,1.89.57c.79.24,1.58.46,2.37.68s1.59.43,2.39.64A144.058,144.058,0,0,0,413.391,485.215Z" transform="translate(-125.391 -113.979)"/></svg>